<mxfile host="app.diagrams.net" modified="2024-06-28T06:54:09.987Z" agent="Mozilla/5.0 (Windows NT 10.0; Win64; x64) AppleWebKit/537.36 (KHTML, like Gecko) Chrome/126.0.0.0 Safari/537.36" etag="s5BVL2j5M_lT3_RrZHcR" version="24.6.4" type="github">
  <diagram id="C5RBs43oDa-KdzZeNtuy" name="Page-1">
    <mxGraphModel dx="988" dy="527" grid="1" gridSize="10" guides="1" tooltips="1" connect="1" arrows="1" fold="1" page="1" pageScale="1" pageWidth="827" pageHeight="1169" math="0" shadow="0">
      <root>
        <mxCell id="WIyWlLk6GJQsqaUBKTNV-0" />
        <mxCell id="WIyWlLk6GJQsqaUBKTNV-1" parent="WIyWlLk6GJQsqaUBKTNV-0" />
        <mxCell id="ychZ0iz0b31LSRpyrO0U-0" value="&lt;div style=&quot;color: #292929;background-color: #ffffff;font-family: Consolas, &#39;Courier New&#39;, monospace;font-weight: normal;font-size: 14px;line-height: 19px;white-space: pre;&quot;&gt;&lt;span style=&quot;color: #0f4a85;&quot;&gt;local_irq_disable&lt;/span&gt;&lt;/div&gt;" style="swimlane;whiteSpace=wrap;html=1;" vertex="1" parent="WIyWlLk6GJQsqaUBKTNV-1">
          <mxGeometry x="50" y="270" width="350" height="90" as="geometry" />
        </mxCell>
        <mxCell id="ychZ0iz0b31LSRpyrO0U-3" value="&lt;font style=&quot;font-size: 20px;&quot;&gt;panic&lt;/font&gt;" style="rounded=0;whiteSpace=wrap;html=1;fillColor=#f5f5f5;fontColor=#333333;strokeColor=#666666;" vertex="1" parent="WIyWlLk6GJQsqaUBKTNV-1">
          <mxGeometry x="50" y="170" width="350" height="60" as="geometry" />
        </mxCell>
        <mxCell id="ychZ0iz0b31LSRpyrO0U-4" value="&lt;div style=&quot;color: #292929;background-color: #ffffff;font-family: Consolas, &#39;Courier New&#39;, monospace;font-weight: normal;font-size: 14px;line-height: 19px;white-space: pre;&quot;&gt;&lt;div style=&quot;line-height: 19px;&quot;&gt;&lt;span style=&quot;color: #0f4a85;&quot;&gt;preempt_disable_notrace&lt;/span&gt;&lt;/div&gt;&lt;/div&gt;" style="swimlane;whiteSpace=wrap;html=1;" vertex="1" parent="WIyWlLk6GJQsqaUBKTNV-1">
          <mxGeometry x="50" y="390" width="350" height="100" as="geometry" />
        </mxCell>
        <mxCell id="ychZ0iz0b31LSRpyrO0U-5" value="&lt;div style=&quot;color: #292929;background-color: #ffffff;font-family: Consolas, &#39;Courier New&#39;, monospace;font-weight: normal;font-size: 14px;line-height: 19px;white-space: pre;&quot;&gt;&lt;div style=&quot;line-height: 19px;&quot;&gt;&lt;span style=&quot;color: #0f4a85;&quot;&gt;set panic cpu&lt;/span&gt;&lt;/div&gt;&lt;/div&gt;" style="swimlane;whiteSpace=wrap;html=1;" vertex="1" parent="WIyWlLk6GJQsqaUBKTNV-1">
          <mxGeometry x="50" y="520" width="350" height="180" as="geometry" />
        </mxCell>
        <mxCell id="ychZ0iz0b31LSRpyrO0U-6" value="&lt;div&gt;Only one CPU is allowed to execute the panic code from here. For&lt;span style=&quot;background-color: initial;&quot;&gt;&amp;nbsp;multiple parallel invocations of panic, all other CPUs either&amp;nbsp;&lt;/span&gt;&lt;span style=&quot;background-color: initial;&quot;&gt;stop themself or will wait until they are stopped by the 1st CPU&lt;/span&gt;&lt;span style=&quot;background-color: initial;&quot;&gt;&amp;nbsp;with smp_send_stop().&lt;/span&gt;&lt;/div&gt;&lt;div style=&quot;font-size: 7px;&quot;&gt;&lt;div style=&quot;color: rgb(41, 41, 41); background-color: rgb(255, 255, 255); font-family: Consolas, &amp;quot;Courier New&amp;quot;, monospace; line-height: 19px; white-space: pre;&quot;&gt;&lt;div&gt;&lt;span style=&quot;color: #001080;&quot;&gt;this_cpu&lt;/span&gt; &lt;span style=&quot;color: #000000;&quot;&gt;=&lt;/span&gt; &lt;span style=&quot;color: #0f4a85;&quot;&gt;raw_smp_processor_id&lt;/span&gt;();&lt;/div&gt;&lt;div&gt;&lt;span style=&quot;color: #001080;&quot;&gt;old_cpu&lt;/span&gt; &amp;nbsp;&lt;span style=&quot;color: #000000;&quot;&gt;=&lt;/span&gt; &lt;span style=&quot;color: #0f4a85;&quot;&gt;atomic_cmpxchg&lt;/span&gt;(&lt;span style=&quot;color: #000000;&quot;&gt;&amp;amp;&lt;/span&gt;&lt;span style=&quot;color: #001080;&quot;&gt;panic_cpu&lt;/span&gt;, &lt;span style=&quot;color: #0f4a85;&quot;&gt;PANIC_CPU_INVALID&lt;/span&gt;, &lt;span style=&quot;color: #001080;&quot;&gt;this_cpu&lt;/span&gt;);&lt;/div&gt;&lt;div&gt;&lt;span style=&quot;color: #b5200d;&quot;&gt;if&lt;/span&gt; (&lt;span style=&quot;color: #001080;&quot;&gt;old_cpu&lt;/span&gt; &lt;span style=&quot;color: #000000;&quot;&gt;!=&lt;/span&gt; &lt;span style=&quot;color: #0f4a85;&quot;&gt;PANIC_CPU_INVALID&lt;/span&gt; &lt;span style=&quot;color: #000000;&quot;&gt;&amp;amp;&amp;amp;&lt;/span&gt; &lt;span style=&quot;color: #001080;&quot;&gt;old_cpu&lt;/span&gt; &lt;span style=&quot;color: #000000;&quot;&gt;!=&lt;/span&gt; &lt;span style=&quot;color: #001080;&quot;&gt;this_cpu&lt;/span&gt;)&lt;/div&gt;&lt;div&gt;&amp;nbsp; &amp;nbsp; &amp;nbsp; &amp;nbsp; &lt;span style=&quot;color: #5e2cbc;&quot;&gt;panic_smp_self_stop&lt;/span&gt;();&lt;/div&gt;&lt;/div&gt;&lt;/div&gt;" style="text;strokeColor=none;align=left;fillColor=none;html=1;verticalAlign=top;whiteSpace=wrap;rounded=0;" vertex="1" parent="ychZ0iz0b31LSRpyrO0U-5">
          <mxGeometry x="5" y="20" width="340" height="150" as="geometry" />
        </mxCell>
        <mxCell id="ychZ0iz0b31LSRpyrO0U-7" value="&lt;div style=&quot;color: #292929;background-color: #ffffff;font-family: Consolas, &#39;Courier New&#39;, monospace;font-weight: normal;font-size: 14px;line-height: 19px;white-space: pre;&quot;&gt;&lt;div style=&quot;line-height: 19px;&quot;&gt;&lt;span style=&quot;color: #0f4a85;&quot;&gt;print panic info&lt;/span&gt;&lt;/div&gt;&lt;/div&gt;" style="swimlane;whiteSpace=wrap;html=1;" vertex="1" parent="WIyWlLk6GJQsqaUBKTNV-1">
          <mxGeometry x="50" y="750" width="350" height="230" as="geometry" />
        </mxCell>
        <mxCell id="ychZ0iz0b31LSRpyrO0U-8" value="&lt;div&gt;&lt;span style=&quot;background-color: rgb(255, 255, 255); font-family: Consolas, &amp;quot;Courier New&amp;quot;, monospace; font-size: 8px; white-space: pre; color: rgb(94, 44, 188);&quot;&gt;console_verbose&lt;/span&gt;&lt;span style=&quot;background-color: rgb(255, 255, 255); color: rgb(41, 41, 41); font-family: Consolas, &amp;quot;Courier New&amp;quot;, monospace; font-size: 8px; white-space: pre;&quot;&gt;();&lt;/span&gt;&lt;br&gt;&lt;/div&gt;&lt;div style=&quot;font-size: 7px;&quot;&gt;&lt;div style=&quot;color: rgb(41, 41, 41); background-color: rgb(255, 255, 255); font-family: Consolas, &amp;quot;Courier New&amp;quot;, monospace; line-height: 19px; white-space: pre; font-size: 8px;&quot;&gt;&lt;div style=&quot;line-height: 19px;&quot;&gt;&lt;div&gt;&lt;span style=&quot;color: #5e2cbc;&quot;&gt;bust_spinlocks&lt;/span&gt;(&lt;span style=&quot;color: #096d48;&quot;&gt;1&lt;/span&gt;);&lt;/div&gt;&lt;div&gt;&lt;span style=&quot;color: rgb(94, 44, 188);&quot;&gt;report_fault_event&lt;/span&gt;(&lt;span style=&quot;color: rgb(15, 74, 133);&quot;&gt;smp_processor_id&lt;/span&gt;(), &lt;span style=&quot;color: rgb(15, 74, 133);&quot;&gt;current&lt;/span&gt;, &lt;span style=&quot;color: rgb(2, 113, 93);&quot;&gt;FATAL_FAULT&lt;/span&gt;,&lt;/div&gt;&lt;div&gt;&amp;nbsp; &amp;nbsp; &amp;nbsp; &amp;nbsp; &lt;span style=&quot;color: #02715d;&quot;&gt;FE_PANIC&lt;/span&gt;, &lt;span style=&quot;color: #0f4a85;&quot;&gt;NULL&lt;/span&gt;);&lt;/div&gt;&lt;div&gt;&lt;span style=&quot;color: #5e2cbc;&quot;&gt;va_start&lt;/span&gt;(&lt;span style=&quot;color: #001080;&quot;&gt;args&lt;/span&gt;, &lt;span style=&quot;color: #001080;&quot;&gt;fmt&lt;/span&gt;);&lt;/div&gt;&lt;div&gt;&lt;span style=&quot;color: #001080;&quot;&gt;len&lt;/span&gt; &lt;span style=&quot;color: #000000;&quot;&gt;=&lt;/span&gt; &lt;span style=&quot;color: #5e2cbc;&quot;&gt;vscnprintf&lt;/span&gt;(&lt;span style=&quot;color: #001080;&quot;&gt;buf&lt;/span&gt;, &lt;span style=&quot;color: #0f4a85;&quot;&gt;sizeof&lt;/span&gt;(&lt;span style=&quot;color: #001080;&quot;&gt;buf&lt;/span&gt;), &lt;span style=&quot;color: #001080;&quot;&gt;fmt&lt;/span&gt;, &lt;span style=&quot;color: #001080;&quot;&gt;args&lt;/span&gt;);&lt;/div&gt;&lt;div&gt;&lt;span style=&quot;color: #5e2cbc;&quot;&gt;va_end&lt;/span&gt;(&lt;span style=&quot;color: #001080;&quot;&gt;args&lt;/span&gt;);&lt;/div&gt;&lt;div style=&quot;font-size: 9px;&quot;&gt;&lt;div style=&quot;line-height: 19px;&quot;&gt;&lt;div&gt;&lt;span style=&quot;color: #b5200d;&quot;&gt;if&lt;/span&gt; (&lt;span style=&quot;color: #001080;&quot;&gt;len&lt;/span&gt; &lt;span style=&quot;color: #000000;&quot;&gt;&amp;amp;&amp;amp;&lt;/span&gt; &lt;span style=&quot;color: #001080;&quot;&gt;buf&lt;/span&gt;[&lt;span style=&quot;color: #001080;&quot;&gt;len&lt;/span&gt; &lt;span style=&quot;color: #000000;&quot;&gt;-&lt;/span&gt; &lt;span style=&quot;color: #096d48;&quot;&gt;1&lt;/span&gt;] &lt;span style=&quot;color: #000000;&quot;&gt;==&lt;/span&gt; &lt;span style=&quot;color: #0f4a85;&quot;&gt;&#39;&lt;/span&gt;&lt;span style=&quot;color: #ee0000;&quot;&gt;\n&lt;/span&gt;&lt;span style=&quot;color: #0f4a85;&quot;&gt;&#39;&lt;/span&gt;)&lt;/div&gt;&lt;div&gt;&amp;nbsp; &amp;nbsp; &amp;nbsp; &amp;nbsp; &lt;span style=&quot;color: #001080;&quot;&gt;buf&lt;/span&gt;[&lt;span style=&quot;color: #001080;&quot;&gt;len&lt;/span&gt; &lt;span style=&quot;color: #000000;&quot;&gt;-&lt;/span&gt; &lt;span style=&quot;color: #096d48;&quot;&gt;1&lt;/span&gt;] &lt;span style=&quot;color: #000000;&quot;&gt;=&lt;/span&gt; &lt;span style=&quot;color: #0f4a85;&quot;&gt;&#39;&lt;/span&gt;&lt;span style=&quot;color: #ee0000;&quot;&gt;\0&lt;/span&gt;&lt;span style=&quot;color: #0f4a85;&quot;&gt;&#39;&lt;/span&gt;;&lt;/div&gt;&lt;div&gt;&lt;span style=&quot;color: #0f4a85;&quot;&gt;pr_emerg&lt;/span&gt;(&lt;span style=&quot;color: #0f4a85;&quot;&gt;&quot;Kernel panic - not syncing: &lt;/span&gt;&lt;span style=&quot;color: #001080;&quot;&gt;%s&lt;/span&gt;&lt;span style=&quot;color: #ee0000;&quot;&gt;\n&lt;/span&gt;&lt;span style=&quot;color: #0f4a85;&quot;&gt;&quot;&lt;/span&gt;, &lt;span style=&quot;color: #001080;&quot;&gt;buf&lt;/span&gt;);&lt;/div&gt;&lt;/div&gt;&lt;/div&gt;&lt;/div&gt;&lt;/div&gt;&lt;/div&gt;" style="text;strokeColor=none;align=left;fillColor=none;html=1;verticalAlign=top;whiteSpace=wrap;rounded=0;" vertex="1" parent="ychZ0iz0b31LSRpyrO0U-7">
          <mxGeometry x="5" y="20" width="340" height="210" as="geometry" />
        </mxCell>
      </root>
    </mxGraphModel>
  </diagram>
</mxfile>
